<?xml version="1.0" encoding="iso-8859-1"?>

<!DOCTYPE svg PUBLIC "-//W3C//DTD SVG 1.1//EN" "http://www.w3.org/Graphics/SVG/1.1/DTD/svg11.dtd">
<!-- Uploaded to: SVG Repo, www.svgrepo.com, Generator: SVG Repo Mixer Tools -->
<svg version="1.1" id="_x35_" xmlns="http://www.w3.org/2000/svg" xmlns:xlink="http://www.w3.org/1999/xlink" 
	 viewBox="0 0 512 512"  xml:space="preserve">
<g>
	<path style="fill:#CAA85D;" d="M437.476,443.858H74.501c-40.97,0-74.49-33.521-74.49-74.49V148.201
		c0-40.969,33.52-74.49,74.49-74.49h362.976c40.97,0,74.49,33.521,74.49,74.49v221.167
		C511.966,410.338,478.446,443.858,437.476,443.858z"/>
	<path style="fill:#CAA85D;" d="M205.518,258.785H74.501c-40.97,0-74.49-33.52-74.49-74.49V74.49C0.011,33.521,33.531,0,74.501,0
		h131.017c40.969,0,74.49,33.521,74.49,74.49v109.805C280.008,225.264,246.487,258.785,205.518,258.785z"/>
	<rect x="37.662" y="117.195" style="fill:#FFFFFF;" width="436.654" height="225.906"/>
	<path style="fill:#CAA85D;" d="M512,186.66v265.681c0,15.726-12.912,28.637-28.637,28.637H28.643
		c-4.552,0-8.939-1.076-12.746-3.062c-5.628-2.814-10.18-7.366-12.912-12.912c-1.49-2.897-2.4-6.125-2.814-9.518
		c-0.083-0.993-0.166-2.069-0.166-3.145v-160.65l37.659-37.659l3.311-3.311l64.061-64.061H512z"/>
	<path style="fill:#AF8B4D;" d="M268.997,186.66l-72.09,72.09l-84.339,84.339l-84.505,84.505L0.171,455.486
		c-0.083-0.993-0.166-2.069-0.166-3.145v-160.65l37.659-37.659l3.311-3.311l64.061-64.061H268.997z"/>
	<polygon style="fill:#F9D68A;" points="104.999,186.664 0,291.663 104.999,291.663 	"/>
	<rect x="304.62" y="394.01" style="fill:#ECE4D9;" width="169.696" height="57.272"/>
</g>
</svg>