<svg xmlns="http://www.w3.org/2000/svg" fill="currentColor" viewBox="0 0 16 16" width="1em" height="1em"><path d="M10.33 1.67h-8c-.45-.02-.43-.67 0-.67h8c.44 0 .46.64 0 .67m-8 2.66c-.45-.02-.43-.66 0-.66H7c.44 0 .45.64 0 .66zM5.67 3c-.46-.02-.44-.66 0-.67h6.66c.44.01.46.65 0 .67zm5.33.67c.44 0 .45.64 0 .66H8.33c-.45-.02-.43-.66 0-.66zm1.33.66c-.45-.02-.43-.66 0-.66H13c.44 0 .45.64 0 .66zm-10 1.34c-.45-.02-.43-.67 0-.67h1.34c.43 0 .45.64 0 .67zm8 0c-.45-.02-.43-.67 0-.67h3.34c.43 0 .45.64 0 .67zM5 5.67C4.55 5.65 4.57 5 5 5h.67c.43 0 .45.64 0 .67zm-2.67 8c-.45-.02-.43-.67 0-.67h1.34c.43 0 .45.64 0 .67zm2.67 0c-.45-.02-.43-.67 0-.67h.67c.43 0 .45.64 0 .67zM10.33 7c-.45-.02-.43-.66 0-.67h3.34c.43.01.45.65 0 .67zm-8 0c-.45-.02-.43-.66 0-.67h3.34c.43.01.45.65 0 .67zm0 5.33c-.45-.02-.43-.66 0-.66h3.34c.43 0 .45.64 0 .66zm0 2.67c-.45-.02-.43-.66 0-.67h3.34c.43.01.45.65 0 .67zm0-6.67c-.45-.02-.43-.66 0-.66H3c.44 0 .45.64 0 .66zm2 0c-.45-.02-.43-.66 0-.66h2c.44 0 .46.64 0 .66zm3.34 0c-.46-.02-.44-.66 0-.66H13c.44 0 .45.64 0 .66zm2.66 1.34c-.45-.02-.43-.67 0-.67h2c.44 0 .46.64 0 .67zm-4 0c-.45-.02-.43-.67 0-.67H9c.44 0 .45.64 0 .67zm-4 0c-.45-.02-.43-.67 0-.67H5c.44 0 .45.64 0 .67zm0 1.33c-.45-.02-.43-.66 0-.67H3c.44.01.45.65 0 .67zm2 0c-.45-.02-.43-.66 0-.67h6c.44.01.46.65 0 .67zm-2-8c-.45-.02-.43-.66 0-.67h2c.44.01.46.65 0 .67z"></path></svg>