<svg xmlns="http://www.w3.org/2000/svg" width="1em" height="1em" viewBox="0 0 16 16"><path fill="#007ACC" d="M0 8v8h16V0H0zm12.9-.64a2 2 0 0 1 1 .58c.14.16.36.44.38.51 0 .02-.7.49-1.11.75-.02.01-.08-.05-.15-.16-.2-.3-.42-.43-.75-.45-.49-.03-.8.22-.8.65 0 .12.02.2.07.3.11.22.3.35.93.62 1.15.5 1.64.82 1.94 1.28.34.52.42 1.34.19 1.95-.26.67-.89 1.12-1.77 1.27a5 5 0 0 1-1.22-.01 2.94 2.94 0 0 1-1.63-.85 2.7 2.7 0 0 1-.42-.62l.15-.1.6-.34.45-.26.1.14c.13.2.43.49.6.58.52.27 1.22.23 1.56-.08.15-.13.21-.27.21-.48a.58.58 0 0 0-.12-.4c-.12-.18-.38-.33-1.1-.64a4 4 0 0 1-1.5-.93c-.2-.2-.37-.53-.45-.8-.06-.22-.07-.79-.02-1.02.17-.8.77-1.35 1.64-1.52.28-.06.94-.04 1.21.03zm-3.76.67v.66H7.06v5.91H5.59V8.7H3.5v-.65c0-.35.01-.65.02-.66h5.61v.65z"></path></svg>